{"title":"Jurassic Bark 2018 HDRip AAC 2.0 x264 [MW]","magnet":"magnet:?xt=urn:btih:d8e23201f3019fbd10f8afcacdea4a6b6fff42eb&dn=Jurassic+Bark+2018+HDRip+AAC+2.0+x264+%5BMW%5D&tr=udp%3A%2F%2Ftracker.leechers-paradise.org%3A6969&tr=udp%3A%2F%2Fzer0day.ch%3A1337&tr=udp%3A%2F%2Fopen.demonii.com%3A1337&tr=udp%3A%2F%2Ftracker.coppersurfer.tk%3A6969&tr=udp%3A%2F%2Fexodus.desync.com%3A6969","uploader":"MFreaky","categoryP":"video","categoryS":"movies","size":"805341516","seeders":"2","leechers":"3","description":" <a href=\"https://pichub.site/image/EDQg8\" rel=\"nofollow\" target=\"_NEW\">https://pichub.site/image/EDQg8</a> <a href=\"\nhttps://pichub.site/image/EDeM5\" rel=\"nofollow\" target=\"_NEW\">\nhttps://pichub.site/image/EDeM5</a> <a href=\"\nhttps://pichub.site/image/EDjth\" rel=\"nofollow\" target=\"_NEW\">\nhttps://pichub.site/image/EDjth</a> <a href=\"\nhttps://pichub.site/image/EDqpj\" rel=\"nofollow\" target=\"_NEW\">\nhttps://pichub.site/image/EDqpj</a> <a href=\"\nhttps://pichub.site/image/EEJkk\" rel=\"nofollow\" target=\"_NEW\">\nhttps://pichub.site/image/EEJkk</a>\r\n\r\nIMDB <a href=\"\nhttps://www.imdb.com/title/tt8426838/\" rel=\"nofollow\" target=\"_NEW\">\nhttps://www.imdb.com/title/tt8426838/</a>\r\n\r\nVideo\r\nFormat                                   : AVC\r\nFormat/Info                              : Advanced Video Codec\r\nFormat profile                           : High@L4.1\r\nFormat settings                          : CABAC / 3 Ref Frames\r\nFormat settings, CABAC                   : Yes\r\nFormat settings, RefFrames               : 3 frames\r\nCodec ID                                 : V_MPEG4/ISO/AVC\r\nDuration                                 : 1 h 10 min\r\nBit rate mode                            : Variable\r\nBit rate                                 : 1 450 kb/s\r\nMaximum bit rate                         : 62.5 Mb/s\r\nWidth                                    : 720 pixels\r\nHeight                                   : 400 pixels\r\nDisplay aspect ratio                     : 16:9\r\nFrame rate mode                          : Constant\r\nFrame rate                               : 23.976 (24000/1001) FPS\r\nColor space                              : RGB\r\nChroma subsampling                       : 4:2:0\r\nBit depth                                : 8 bits\r\nScan type                                : Progressive\r\nBits/(Pixel*Frame)                       : 0.210\r\nStream size                              : 719 MiB (94%)\r\nWriting library                          : x264 core 155 r2901 7d0ff22\r\n\r\nAudio\r\nFormat                                   : AAC\r\nFormat/Info                              : Advanced Audio Codec\r\nFormat profile                           : HE-AAC / LC\r\nFormat settings                          : Explicit\r\nCodec ID                                 : A_AAC-2\r\nDuration                                 : 1 h 10 min\r\nBit rate                                 : 96.0 kb/s\r\nChannel(s)                               : 2 channels\r\nChannel positions                        : Front: L R\r\nSampling rate                            : 48.0 kHz / 24.0 kHz\r\nFrame rate                               : 23.438 FPS (1024 SPF)\r\nCompression mode                         : Lossy\r\nStream size                              : 47.6 MiB (6%)\r\nLanguage                                 : English","last_updated":"2018-09-16T12:16:55.499Z","parsed":{"xt":"urn:btih:d8e23201f3019fbd10f8afcacdea4a6b6fff42eb","dn":"Jurassic Bark 2018 HDRip AAC 2.0 x264 [MW]","tr":["udp://exodus.desync.com:6969","udp://open.demonii.com:1337","udp://tracker.coppersurfer.tk:6969","udp://tracker.leechers-paradise.org:6969","udp://zer0day.ch:1337"],"infoHash":"d8e23201f3019fbd10f8afcacdea4a6b6fff42eb","infoHashBuffer":{"type":"Buffer","data":[216,226,50,1,243,1,159,189,16,248,175,202,205,234,74,107,111,255,66,235]},"name":"Jurassic Bark 2018 HDRip AAC 2.0 x264 [MW]","announce":["udp://exodus.desync.com:6969","udp://open.demonii.com:1337","udp://tracker.coppersurfer.tk:6969","udp://tracker.leechers-paradise.org:6969","udp://zer0day.ch:1337"],"urlList":[]}}